HIERARCHY
ROOT SimulationBone
{
	OFFSET 0.000000 0.000000 0.000000
	CHANNELS 6 Xposition Yposition Zposition Zrotation Yrotation Xrotation 
	JOINT Hips
	{
		OFFSET 0.000000 0.000000 0.000000
		CHANNELS 6 Xposition Yposition Zposition Zrotation Yrotation Xrotation 
		JOINT LeftUpLeg
		{
			OFFSET 0.103454 1.857828 10.548502
			CHANNELS 3 Zrotation Yrotation Xrotation
			JOINT LeftLeg
			{
				OFFSET 43.500000 -0.000023 -0.000008
				CHANNELS 3 Zrotation Yrotation Xrotation
				JOINT LeftFoot
				{
					OFFSET 42.372192 0.000008 0.000008
					CHANNELS 3 Zrotation Yrotation Xrotation
					JOINT LeftToe
					{
						OFFSET 17.299997 -0.000001 0.000000
						CHANNELS 3 Zrotation Yrotation Xrotation
						End Site
						{
							OFFSET 0.000000 0.000000 0.000000
						}
					}
				}
			}
		}
		JOINT RightUpLeg
		{
			OFFSET 0.103459 1.857828 -10.548505
			CHANNELS 3 Zrotation Yrotation Xrotation
			JOINT RightLeg
			{
				OFFSET 43.500046 -0.000027 0.000015
				CHANNELS 3 Zrotation Yrotation Xrotation
				JOINT RightFoot
				{
					OFFSET 42.372261 -0.000008 0.000019
					CHANNELS 3 Zrotation Yrotation Xrotation
					JOINT RightToe
					{
						OFFSET 17.299992 -0.000006 -0.000002
						CHANNELS 3 Zrotation Yrotation Xrotation
						End Site
						{
							OFFSET 0.000000 0.000000 0.000000
						}
					}
				}
			}
		}
		JOINT Spine
		{
			OFFSET 6.901967 -2.603729 0.000006
			CHANNELS 3 Zrotation Yrotation Xrotation
			JOINT Spine1
			{
				OFFSET 12.588098 -0.000001 -0.000005
				CHANNELS 3 Zrotation Yrotation Xrotation
				JOINT Spine2
				{
					OFFSET 12.343207 0.000001 -0.000003
					CHANNELS 3 Zrotation Yrotation Xrotation
					JOINT Neck
					{
						OFFSET 25.832897 -0.000006 -0.000001
						CHANNELS 3 Zrotation Yrotation Xrotation
						JOINT Head
						{
							OFFSET 11.766602 0.000010 0.000005
							CHANNELS 3 Zrotation Yrotation Xrotation
							End Site
							{
								OFFSET 0.000000 0.000000 0.000000
							}
						}
					}
					JOINT LeftShoulder
					{
						OFFSET 19.745901 -1.480368 6.000114
						CHANNELS 3 Zrotation Yrotation Xrotation
						JOINT LeftArm
						{
							OFFSET 11.284125 -0.000009 -0.000026
							CHANNELS 3 Zrotation Yrotation Xrotation
							JOINT LeftForeArm
							{
								OFFSET 33.000046 0.000005 0.000037
								CHANNELS 3 Zrotation Yrotation Xrotation
								JOINT LeftHand
								{
									OFFSET 25.200003 0.000016 -0.000001
									CHANNELS 3 Zrotation Yrotation Xrotation
									End Site
									{
										OFFSET 0.000000 0.000000 0.000000
									}
								}
							}
						}
					}
					JOINT RightShoulder
					{
						OFFSET 19.746088 -1.480377 -6.000074
						CHANNELS 3 Zrotation Yrotation Xrotation
						JOINT RightArm
						{
							OFFSET 11.284132 -0.000015 -0.000021
							CHANNELS 3 Zrotation Yrotation Xrotation
							JOINT RightForeArm
							{
								OFFSET 33.000107 0.000015 0.000018
								CHANNELS 3 Zrotation Yrotation Xrotation
								JOINT RightHand
								{
									OFFSET 25.199774 0.000138 0.000420
									CHANNELS 3 Zrotation Yrotation Xrotation
									End Site
									{
										OFFSET 0.000000 0.000000 0.000000
									}
								}
							}
						}
					}
				}
			}
		}
	}
}
MOTION
Frames: 13
Frame Time: 0.016667
172.709081 0.000000 -186.725630 0.000000 96.339705 0.000000 -1.057962 90.459639 -0.005173 89.067528 -0.081780 179.713050 172.531975 -6.376494 175.159235 -23.207075 2.573494 -4.777536 88.285857 1.614994 -9.902794 21.454557 0.003117 0.000018 172.584787 6.283119 -173.090304 -25.907177 -0.129093 4.514698 86.848024 -1.562127 8.435134 21.454550 -0.003090 -0.000001 6.139525 -0.057134 -0.076449 2.266261 -0.096191 -0.153826 1.948166 -0.097247 -0.153250 -0.666887 -6.749394 1.200814 -22.866181 8.554612 -3.941962 170.324902 -78.339542 8.391492 -0.133766 62.482809 21.541422 -33.227522 -9.654884 0.975138 7.313931 -2.503333 6.854212 -152.068609 81.288837 29.862179 -17.295587 -64.009820 -43.446582 -32.706958 17.480994 -1.444208 11.592260 3.419307 9.945796 
172.703155 0.000000 -186.937861 0.000000 96.345685 0.000000 -1.055736 90.416618 -0.003565 89.070759 -0.071826 179.802591 172.584715 -6.407699 175.217520 -23.361912 2.562353 -4.745857 88.506075 1.608416 -9.918776 21.454557 0.003126 0.000019 172.697945 6.290798 -173.026286 -26.034539 -0.101449 4.528086 87.067651 -1.583584 8.452941 21.454551 -0.003092 -0.000001 6.133079 -0.056148 -0.072092 2.253371 -0.090268 -0.145046 1.935274 -0.091280 -0.144498 -0.578753 -6.730365 1.170503 -22.932435 8.570362 -3.975959 170.308020 -78.348718 8.408418 -0.111900 62.555208 21.490368 -33.311296 -9.666558 0.977686 7.283420 -2.526866 6.886173 -152.262002 81.303457 29.665806 -17.428087 -64.017052 -43.381617 -32.792164 17.562368 -1.451265 11.544524 3.421410 9.971526 
172.695808 0.000000 -187.162158 0.000000 96.360953 0.000000 -1.048622 90.372388 -0.001575 89.082921 -0.066963 179.887006 172.659827 -6.432224 175.268224 -23.509779 2.558370 -4.708271 88.728773 1.597621 -9.936240 21.454557 0.003124 0.000019 172.831906 6.302814 -172.958912 -26.162397 -0.074701 4.542678 87.295025 -1.605968 8.473445 21.454553 -0.003099 -0.000001 6.126702 -0.054977 -0.066467 2.240605 -0.087862 -0.133762 1.922512 -0.088808 -0.133225 -0.486541 -6.698106 1.145010 -22.984539 8.577593 -3.996828 170.223144 -78.360707 8.494388 -0.068329 62.616786 21.460123 -33.396522 -9.663905 0.979325 7.250555 -2.532202 6.939731 -152.472402 81.323475 29.452050 -17.529660 -64.021463 -43.351387 -32.803380 17.591134 -1.453363 11.523463 3.391507 10.018643 
172.687112 0.000000 -187.398876 0.000000 96.384943 0.000000 -1.037234 90.327667 0.000245 89.101124 -0.068432 179.962280 172.758953 -6.448805 175.311026 -23.643627 2.560047 -4.668059 88.950372 1.584294 -9.957323 21.454558 0.003114 0.000018 172.984267 6.319710 -172.894149 -26.287374 -0.048210 4.558870 87.528183 -1.629491 8.496429 21.454555 -0.003103 -0.000000 6.119765 -0.053799 -0.059247 2.226719 -0.089090 -0.119322 1.908630 -0.089945 -0.118779 -0.393728 -6.657004 1.124499 -23.020417 8.574598 -4.004718 170.100792 -78.371517 8.618510 -0.000550 62.660201 21.480187 -33.486893 -9.657236 0.980840 7.217784 -2.521264 6.996953 -152.689272 81.346275 29.231635 -17.602908 -64.022011 -43.351373 -32.744677 17.567516 -1.450568 11.523254 3.331168 10.070025 
172.677198 0.000000 -187.648462 0.000000 96.417522 0.000000 -1.022464 90.282930 0.001374 89.121415 -0.076041 -179.974655 172.880603 -6.457996 175.348616 -23.759801 2.564582 -4.628964 89.169073 1.570683 -9.983789 21.454558 0.003104 0.000016 173.151810 6.340273 -172.837447 -26.405992 -0.021886 4.577720 87.765147 -1.654704 8.522211 21.454554 -0.003095 0.000001 6.111237 -0.052753 -0.050266 2.209668 -0.093262 -0.101391 1.891574 -0.094003 -0.100828 -0.301139 -6.612949 1.108515 -23.040435 8.560857 -4.001310 169.981865 -78.377572 8.739324 0.090100 62.680403 21.572490 -33.582616 -9.656148 0.982898 7.188222 -2.497482 7.040016 -152.905593 81.369499 29.011730 -17.646849 -64.017032 -43.380600 -32.622310 17.491947 -1.443086 11.538749 3.244647 10.114271 
172.666285 0.000000 -187.911497 0.000000 96.457370 0.000000 -1.005800 90.238029 0.001907 89.136910 -0.086463 -179.922869 173.014866 -6.464303 175.388316 -23.863687 2.567471 -4.594696 89.387661 1.559888 -10.014398 21.454558 0.003096 0.000015 173.328577 6.359596 -172.789784 -26.515195 0.002699 4.600203 88.004418 -1.682013 8.551504 21.454553 -0.003086 0.000002 6.099069 -0.051802 -0.039545 2.185334 -0.098381 -0.079990 1.867236 -0.098990 -0.079401 -0.204575 -6.572365 1.094665 -23.047155 8.538703 -3.991496 169.906624 -78.377924 8.815882 0.195789 62.680460 21.719980 -33.673586 -9.658986 0.985094 7.164396 -2.465485 7.067880 -153.108263 81.391675 28.805711 -17.658536 -64.005393 -43.444318 -32.443896 17.362553 -1.430951 11.574003 3.145475 10.165487 
172.654683 0.000000 -188.188719 0.000000 96.501831 0.000000 -0.988729 90.192594 0.001977 89.140796 -0.095945 -179.878796 173.150624 -6.472637 175.437973 -23.962775 2.564487 -4.568395 89.609951 1.554794 -10.047248 21.454558 0.003092 0.000015 173.508774 6.372752 -172.749583 -26.612530 0.023860 4.626676 88.245000 -1.711464 8.584844 21.454553 -0.003086 0.000000 6.081256 -0.050867 -0.027282 2.149692 -0.102339 -0.055494 1.831597 -0.102801 -0.054882 -0.100520 -6.541469 1.080189 -23.042490 8.512471 -3.981332 169.907282 -78.373011 8.815367 0.307478 62.666822 21.888949 -33.746700 -9.658943 0.986621 7.147593 -2.430124 7.089372 -153.284475 81.412170 28.626628 -17.634288 -63.986990 -43.547613 -32.217073 17.178443 -1.414318 11.631676 3.045866 10.238482 
172.642742 0.000000 -188.480957 0.000000 96.547402 0.000000 -0.971761 90.145973 0.001468 89.129438 -0.102200 -179.835663 173.280369 -6.485504 175.502940 -24.063943 2.554203 -4.551009 89.839321 1.556606 -10.080842 21.454558 0.003093 0.000015 173.690044 6.378403 -172.709434 -26.697503 0.041127 4.655086 88.487429 -1.741778 8.621676 21.454553 -0.003091 -0.000001 6.056996 -0.049876 -0.014201 2.101149 -0.103896 -0.029326 1.783055 -0.104205 -0.028703 0.006789 -6.525149 1.062821 -23.023588 8.491671 -3.978323 169.984788 -78.366081 8.736706 0.418134 62.651274 22.018362 -33.787183 -9.639875 0.986173 7.134753 -2.395973 7.135983 -153.429364 81.432724 28.479332 -17.569303 -63.965355 -43.688832 -31.948048 16.944991 -1.393676 11.699800 2.943616 10.325430 
172.630850 0.000000 -188.789064 0.000000 96.590441 0.000000 -0.955127 90.097522 0.000177 89.101570 -0.103965 -179.786518 173.400074 -6.503904 175.586330 -24.172095 2.536708 -4.542682 90.078315 1.565789 -10.114245 21.454558 0.003097 0.000016 173.872237 6.376510 -172.662132 -26.770335 0.054555 4.683312 88.732716 -1.771709 8.661298 21.454551 -0.003093 -0.000000 6.026295 -0.048821 -0.001103 2.039735 -0.102510 -0.003077 1.721632 -0.102667 -0.002463 0.110983 -6.526776 1.040938 -22.987919 8.485971 -3.989171 170.129016 -78.360178 8.590110 0.523774 62.644476 22.055314 -33.783519 -9.588259 0.982691 7.122210 -2.367534 7.234727 -153.541254 81.455032 28.365428 -17.460022 -63.944468 -43.865400 -31.643036 16.670099 -1.369681 11.766624 2.834228 10.416245 
172.619450 0.000000 -189.113880 0.000000 96.629280 0.000000 -0.938907 90.046898 -0.002163 89.062212 -0.102624 -179.728588 173.516065 -6.525208 175.684787 -24.284884 2.515338 -4.542567 90.326607 1.581550 -10.148390 21.454558 0.003101 0.000016 174.060595 6.368809 -172.607145 -26.832112 0.065104 4.711396 88.982228 -1.801482 8.703468 21.454551 -0.003091 0.000001 5.991201 -0.047931 0.011427 1.969543 -0.099554 0.022051 1.651431 -0.099559 0.022644 0.204910 -6.545010 1.015056 -22.939055 8.500492 -4.015937 170.316804 -78.354879 8.399189 0.629660 62.646917 22.005837 -33.738876 -9.510402 0.976612 7.108101 -2.349358 7.372066 -153.622809 81.478234 28.282204 -17.309037 -63.926559 -44.077726 -31.309702 16.365528 -1.343303 11.835805 2.718267 10.514298 
172.608927 0.000000 -189.456162 0.000000 96.664249 0.000000 -0.923238 89.993804 -0.005795 89.017929 -0.100286 -179.662581 173.637329 -6.546322 175.792349 -24.398173 2.493972 -4.548866 90.583205 1.602349 -10.184349 21.454558 0.003103 0.000016 174.261059 6.357237 -172.547480 -26.884716 0.073957 4.740491 89.237504 -1.832054 8.748254 21.454552 -0.003087 0.000001 5.954158 -0.047449 0.023028 1.895456 -0.096753 0.045299 1.577346 -0.096608 0.045871 0.284144 -6.576243 0.986459 -22.884553 8.536685 -4.057997 170.525103 -78.348409 8.187470 0.743659 62.654626 21.898513 -33.661473 -9.418810 0.968903 7.091508 -2.345309 7.521780 -153.681527 81.500767 28.222094 -17.119269 -63.912877 -44.328668 -30.955780 16.043833 -1.315486 11.913192 2.596902 10.625187 
172.599664 0.000000 -189.816629 0.000000 96.696317 0.000000 -0.908840 89.937813 -0.011014 88.975147 -0.099234 -179.593561 173.773113 -6.565902 175.899064 -24.507926 2.475405 -4.556924 90.847348 1.624894 -10.221884 21.454558 0.003104 0.000016 174.476964 6.342805 -172.493668 -26.932333 0.082261 4.774042 89.500414 -1.865844 8.796514 21.454553 -0.003086 0.000001 5.917164 -0.047417 0.034010 1.821466 -0.095318 0.067297 1.503364 -0.095032 0.067858 0.355941 -6.612482 0.957317 -22.841794 8.585841 -4.108702 170.744292 -78.336909 7.964796 0.875202 62.656069 21.793562 -33.565007 -9.330965 0.961049 7.073662 -2.356449 7.647473 -153.740165 81.520820 28.162155 -16.888989 -63.902531 -44.627692 -30.587997 15.716873 -1.287184 11.998090 2.468808 10.750039 
172.592755 0.000000 -190.196202 0.000000 96.726932 0.000000 -0.896794 89.878443 -0.018872 88.938527 -0.101793 -179.528412 173.930799 -6.583109 175.994589 -24.610717 2.461509 -4.562241 91.118503 1.646096 -10.260238 21.454557 0.003107 0.000017 174.708843 6.327235 -172.455562 -26.980498 0.091489 4.814107 89.773273 -1.904474 8.848375 21.454551 -0.003090 0.000001 5.881495 -0.048028 0.044972 1.750123 -0.096380 0.089254 1.432023 -0.095966 0.089824 0.431165 -6.645341 0.929850 -22.828099 8.636925 -4.160119 170.972273 -78.317121 7.733350 1.032595 62.639806 21.750496 -33.462299 -9.262062 0.954313 7.057106 -2.381438 7.717531 -153.820989 81.536773 28.079930 -16.614923 -63.894094 -44.984652 -30.213324 15.394603 -1.259140 12.088122 2.331542 10.888163 
